PathFileType	3	(X/Y/Z)	D:\Vicon Database\Healthy Subjects\S0040\Jan. 30, 2020\Force Plate Walk 8.trc
DataRate	CameraRate	NumFrames	NumMarkers	Units	OrigDataRate	OrigDataStartFrame	OrigNumFrames
100.0	100.0	6	53	mm	100.0	387	319	
Frame#	Time	right_foot_cluster2			right_foot_cluster3			sternum_cluster1			sternum_cluster2			sternum_cluster3			left_asis			right_asis			left_psis			right_psis			sacrum_cluster1			sacrum_cluster2			sacrum_cluster3			left_lat_femoral_epicondyle			left_anterior_thigh15			left_anterior_thigh25			left_anterior_thigh50			left_lateral_thigh25			left_lateral_thigh50			left_thigh_cluster1			left_thigh_cluster2			left_thigh_cluster3			left_fibular_head			left_tibial_tuberosity			left_anterior_shank30			left_lateral_malleolus			left_shank_cluster1			left_shank_cluster2			left_shank_cluster3			left_heel			left_metatarsal2			left_foot_cluster1			left_foot_cluster2			left_foot_cluster3			right_lat_femoral_epicondyle			right_anterior_thigh15			right_anterior_thigh25			right_anterior_thigh50			right_lateral_thigh25			right_lateral_thigh50			right_thigh_cluster1			right_thigh_cluster2			right_thigh_cluster3			right_fibular_head			right_tibial_tuberosity			right_lateral_distal_shank			right_anterior_shank30			right_lateral_malleolus			right_shank_cluster1			right_shank_cluster2			right_shank_cluster3			right_heel			right_metatarsal2			right_foot_cluster1			
		X1	Y1	Z1	X2	Y2	Z2	X3	Y3	Z3	X4	Y4	Z4	X5	Y5	Z5	X6	Y6	Z6	X7	Y7	Z7	X8	Y8	Z8	X9	Y9	Z9	X10	Y10	Z10	X11	Y11	Z11	X12	Y12	Z12	X13	Y13	Z13	X14	Y14	Z14	X15	Y15	Z15	X16	Y16	Z16	X17	Y17	Z17	X18	Y18	Z18	X19	Y19	Z19	X20	Y20	Z20	X21	Y21	Z21	X22	Y22	Z22	X23	Y23	Z23	X24	Y24	Z24	X25	Y25	Z25	X26	Y26	Z26	X27	Y27	Z27	X28	Y28	Z28	X29	Y29	Z29	X30	Y30	Z30	X31	Y31	Z31	X32	Y32	Z32	X33	Y33	Z33	X34	Y34	Z34	X35	Y35	Z35	X36	Y36	Z36	X37	Y37	Z37	X38	Y38	Z38	X39	Y39	Z39	X40	Y40	Z40	X41	Y41	Z41	X42	Y42	Z42	X43	Y43	Z43	X44	Y44	Z44	X45	Y45	Z45	X46	Y46	Z46	X47	Y47	Z47	X48	Y48	Z48	X49	Y49	Z49	X50	Y50	Z50	X51	Y51	Z51	X52	Y52	Z52	X53	Y53	Z53	
387	3.86	2316.4653	101.07278	-229.21152	2317.7952	106.94006	-266.15292	2092.6426	1440.1992	-182.25462	2081.7444	1412.0005	-173.91866	2081.6042	1415.8744	-212.11574	2121.9514	1063.5985	-68.319656	2117.47	1062.1501	-316.76974	2285.4304	1081.5868	-113.84342	2283.3621	1086.7344	-231.47217	2291.627	1141.8124	-178.98128	2297.9646	1116.932	-191.43852	2302.6426	1111.2528	-152.61688	2012.6793	562.66333	-38.901112	1955.8992	664.90594	-86.629257	1976.2678	750.12744	-74.738785	2035.2498	873.35596	-64.331116	2074.8862	701.85071	-13.921903	2126.7957	842.56689	9.3982964	2111.8284	798.17151	15.45521	2103.8691	769.38892	13.609929	2072.8674	790.836	17.797546	1980.8615	490.82431	-32.047451	1927.9567	494.92841	-89.205345	1882.1296	247.65105	-91.515289	1890.7163	120.11342	-57.315594	1914.588	442.29813	-115.54733	1902.1914	417.2428	-106.28084	1918.6658	411.63004	-141.5853	1949.3939	60.388866	-94.40052	1746.0807	139.87602	-98.040741	1816.891	164.31445	-87.641487	1788.3723	156.28607	-78.708488	1787.9694	164.34193	-116.47701	2312.9915	540.97467	-311.39609	2206.8467	601.26349	-254.72995	2159.8862	673.16943	-257.71231	2115.4785	798.29138	-277.668	2259.3457	691.94476	-340.13257	2216.8528	832.81708	-372.05524	2239.1533	783.88495	-376.11673	2234.8213	755.57574	-371.04996	2272.7815	764.79559	-366.63971	2341.2671	477.72742	-311.83594	2289.438	457.59897	-267.27509	2405.533	214.49591	-291.1051	2357.0352	219.22432	-246.86349	2427.9863	112.8353	-274.62756	2308.4495	396.79233	-211.65109	2321.1035	371.50024	-203.1713	2298.8953	364.97031	-232.39105	2506.3953	83.255867	-240.04146	2287.4299	65.626236	-243.57121	2340.3599	116.92037	-236.17273
388	3.87	2315.3645	101.22386	-228.85051	2316.6106	107.00409	-265.81903	2077.6848	1437.3704	-181.48599	2066.8577	1409.147	-173.36913	2066.6592	1413.0326	-211.48352	2107.0444	1060.9166	-67.902534	2102.7046	1059.2668	-316.40637	2270.7358	1079.0135	-113.00638	2268.5313	1084.1241	-230.74359	2277.8118	1139.5442	-178.36473	2283.2437	1114.3228	-190.65392	2287.6494	1108.4487	-151.82173	1997.5005	559.65607	-37.624008	1943.9713	660.86133	-87.059921	1964.0405	745.20349	-75.484825	2020.7625	869.01166	-64.383934	2061.0198	698.27521	-12.016809	2112.3511	839.64996	10.452755	2097.4104	795.18756	17.317316	2088.9026	765.95776	15.956711	2058.27	787.32239	19.887247	1962.9731	489.5574	-31.085974	1910.7585	495.37061	-89.041199	1854.0593	250.77345	-90.117958	1856.2185	123.09981	-55.645519	1895.5538	443.40549	-115.04299	1881.8556	419.1405	-105.7007	1897.8706	413.07452	-140.56699	1912.115	60.132542	-91.558533	1712.8948	149.63687	-98.140152	1785.1465	170.7845	-87.057442	1756.01	164.25957	-78.5541	1756.4728	172.02164	-116.32093	2304.8413	540.8017	-310.48611	2197.2385	599.38745	-254.14932	2149.1365	670.59845	-257.2056	2102.5969	795.47827	-277.32437	2248.7554	690.97217	-340.02402	2204.6301	831.19019	-371.67026	2227.4021	782.58032	-375.62244	2223.4246	754.11005	-370.40167	2261.1968	763.76129	-365.84891	2334.478	478.18488	-310.5564	2282.6072	457.0528	-266.40894	2402.698	215.98343	-290.30286	2353.9033	219.85944	-246.2435	2426.5891	114.47656	-274.14328	2304.1716	397.37436	-210.04376	2315.241	371.21185	-202.54874	2293.6162	364.6593	-231.52829	2505.3186	85.869789	-239.43552	2286.6406	65.448326	-243.34946	2338.7563	117.28734	-235.85526
389	3.88	2314.0706	101.03371	-228.71848	2315.1846	107.01375	-265.63748	2062.707	1434.5565	-180.85315	2051.9255	1406.3123	-172.62593	2051.6167	1410.1768	-210.77112	2092.095	1058.0465	-67.18634	2088.3496	1056.2059	-315.72842	2255.8975	1076.3391	-112.12384	2253.9763	1081.7239	-229.95164	2262.6882	1136.7952	-177.34865	2268.3899	1111.8445	-189.78645	2272.7146	1105.9327	-150.90858	1982.3107	556.59283	-36.620693	1930.9595	657.62299	-87.491829	1951.2708	740.88184	-76.198532	2006.0298	864.89545	-64.244667	2046.441	694.76398	-10.269597	2097.2788	836.79578	11.791756	2082.2654	791.84985	19.327526	2074.0767	762.87762	17.056934	2043.4583	784.5459	21.843071	1946.0261	488.09555	-30.118622	1894.0093	495.65601	-88.52977	1827.5079	253.99086	-88.681541	1824.7839	126.12794	-54.328896	1877.1858	444.7287	-114.07223	1862.389	420.82663	-104.82935	1878.0532	414.10629	-139.6031	1877.6271	60.028824	-89.587868	1683.0806	158.74083	-97.767914	1756.0275	176.81569	-86.591866	1726.8391	171.45752	-78.262596	1727.7855	178.90356	-116.02356	2295.5369	540.29919	-309.60376	2186.6475	597.40222	-253.91913	2137.3613	668.22076	-256.90051	2089.6472	792.70807	-276.95282	2237.5798	689.58356	-339.20663	2191.686	829.42627	-370.88837	2215.3799	781.05396	-374.65292	2211.6191	752.4549	-370.34012	2249.0833	762.41656	-365.01306	2326.417	478.31012	-309.61185	2274.7986	456.25333	-265.70917	2399.4131	217.33919	-289.58603	2350.3967	220.29951	-245.65628	2425.2507	116.39565	-273.46368	2296.6758	396.46426	-209.48062	2308.8809	371.02039	-201.75308	2287.2754	364.04477	-231.01614	2504.1328	88.547508	-238.79398	2285.9539	65.017082	-243.12163	2337.2266	117.61591	-235.61011
390	3.89	2312.6589	101.14843	-228.51469	2313.6697	106.9579	-265.41122	2047.7476	1431.7189	-180.15639	2036.9733	1403.4149	-171.96715	2036.5878	1407.3424	-210.01675	2077.0259	1055.1757	-66.47834	2073.5723	1053.5428	-315.19766	2241.021	1073.9355	-110.97223	2238.8354	1079.085	-228.89027	2247.304	1134.2446	-176.19734	2253.5249	1109.2788	-188.75618	2257.7888	1103.441	-149.87466	1967.0334	553.867	-35.639088	1916.9519	655.12018	-88.262756	1937.2554	737.65796	-76.932869	1990.9396	861.62408	-63.956596	2031.0084	691.66852	-9.3725252	2081.489	834.03156	13.03721	2066.3604	788.80658	20.606001	2058.4915	759.70215	18.476753	2027.4778	781.19794	22.651682	1929.6328	486.37869	-29.258614	1878.1748	495.39005	-87.708641	1804.0627	256.09113	-87.727844	1796.7332	128.49673	-53.703163	1858.8718	445.35657	-112.8439	1843.6572	421.92688	-103.83969	1858.9429	414.75735	-138.66089	1846.7795	60.216537	-88.722107	1656.0428	166.58751	-96.801651	1729.7338	181.82906	-86.106438	1700.6079	177.63283	-77.835457	1701.7032	184.71307	-115.52647	2285.2725	539.69385	-308.78232	2175.6543	595.17767	-253.53203	2125.0134	665.78406	-256.72321	2076.2244	790.05054	-276.75464	2225.49	688.22864	-338.54086	2178.6699	827.35931	-369.66522	2202.6138	779.40381	-373.80667	2198.9866	750.72998	-368.99371	2236.4626	760.96545	-363.95236	2317.3203	478.2836	-308.78568	2265.8643	455.27783	-265.27722	2395.5381	218.81447	-288.8602	2346.428	220.47441	-245.42412	2423.2739	118.28673	-273.20523	2288.845	395.0932	-208.86771	2301.5691	370.29208	-201.10689	2280.4707	363.03366	-230.58498	2502.6846	91.538147	-238.40872	2285.0635	64.647079	-242.97427	2335.4609	117.90066	-235.15161
391	3.9	2310.7458	101.38064	-228.36537	2311.8042	106.86452	-265.20401	2032.8014	1428.9041	-179.41434	2021.9016	1400.6833	-171.21495	2021.4456	1404.6116	-209.19009	2061.7361	1052.4485	-65.643967	2058.71	1051.0464	-314.66656	2225.8269	1071.3802	-109.78635	2224.2781	1076.6943	-227.76886	2232.1958	1131.6948	-174.88905	2238.6113	1106.8391	-187.47328	2242.6907	1100.8638	-148.64148	1951.5913	551.61237	-34.74221	1901.6844	653.64899	-89.37249	1921.4802	735.97412	-77.546669	1975.1042	859.55579	-63.486069	2015.1715	689.29816	-9.5252504	2065.082	831.61084	14.048805	2050.0881	786.30853	21.359304	2042.5315	757.39172	19.09655	2011.3601	778.56909	23.401592	1913.5112	484.53476	-28.333332	1861.8879	495.00378	-86.526047	1782.2197	257.43997	-87.077835	1771.8483	129.95938	-53.614059	1841.2322	445.20279	-111.58639	1825.4805	422.35788	-102.79662	1840.3612	414.86069	-137.7281	1819.6908	59.937298	-89.417786	1632.328	172.34381	-95.458244	1706.3904	185.18921	-85.479752	1677.1433	182.16714	-76.637589	1678.2819	189.11467	-114.51228	2273.8374	539.03326	-308.27728	2162.7744	593.47296	-253.96693	2111.8464	663.52191	-256.56378	2062.241	787.70892	-276.53516	2212.6973	686.91638	-337.56296	2165.0374	825.77136	-369.3511	2189.3862	777.91791	-372.90674	2186.0791	749.13989	-367.54935	2223.3916	759.62567	-362.76633	2307.1042	478.17896	-308.18381	2256.5928	453.9061	-264.2038	2391.7007	220.68759	-288.39767	2342.0063	220.92856	-244.9868	2421.2148	120.63101	-272.8154	2280.5256	394.72906	-208.26431	2293.8789	369.75797	-200.40811	2272.6145	361.99304	-230.03383	2501.1375	95.306862	-237.7701	2284.2163	64.356361	-242.86014	2333.3613	118.66685	-235.25716
392	3.91	2308.9036	101.26803	-228.27171	2309.6514	106.8101	-265.19183	2017.4891	1426.4862	-178.6396	2006.7391	1398.1941	-170.35995	2006.134	1402.0316	-208.3381	2046.2008	1050.0142	-64.742714	2043.658	1048.9248	-314.00922	2210.5391	1068.8699	-108.41499	2209.1589	1074.2748	-226.40172	2217.2126	1129.2751	-173.49416	2223.4573	1104.3358	-186.16846	2227.4873	1098.4136	-147.17499	1936.1104	549.72717	-33.979713	1885.3887	652.76245	-90.716171	1904.4089	735.44818	-77.61216	1958.4816	859.02167	-62.592304	1999.5565	687.55463	-9.7673311	2048.4712	829.62433	14.670815	2034.0273	784.21436	21.216356	2026.3149	755.45691	18.823742	1994.9794	776.32959	22.638445	1897.4929	482.54282	-27.373585	1845.5414	494.14603	-85.20887	1762.0927	257.85007	-86.675293	1750.4629	130.09029	-54.041519	1823.9865	445.06097	-110.56481	1807.9059	422.02374	-101.71193	1822.3311	414.83295	-136.95837	1795.9655	59.215832	-91.432487	1611.423	175.91222	-93.225342	1686.0839	186.90793	-84.180679	1656.8652	184.08914	-75.103958	1657.3647	191.98366	-112.72413	2261.6169	538.29431	-307.27289	2149.2595	591.81342	-253.76755	2097.6082	661.4624	-256.40298	2047.6584	785.57404	-276.41187	2199.3059	685.58533	-336.54221	2151.0549	824.17969	-368.52756	2175.6843	776.44647	-372.00208	2172.593	747.35687	-366.91458	2209.5969	758.45642	-361.60989	2295.7478	477.98306	-307.58701	2245.9063	452.54538	-263.52814	2386.7239	222.61769	-287.89871	2336.9675	221.58321	-244.49171	2418.8525	123.25383	-272.56744	2271.5337	393.99063	-207.54202	2285.2405	369.27921	-199.8891	2263.8164	361.10474	-229.67485	2499.2737	99.534943	-237.41333	2282.9888	64.021881	-242.89113	2330.9817	118.95621	-235.5034
